<?xml version="1.0" standalone="no"?>
<!DOCTYPE svg PUBLIC "-//W3C//DTD SVG 20010904//EN"
 "http://www.w3.org/TR/2001/REC-SVG-20010904/DTD/svg10.dtd">
<svg version="1.0" xmlns="http://www.w3.org/2000/svg"
 width="768.000000pt" height="768.000000pt" viewBox="0 0 768.000000 768.000000"
 preserveAspectRatio="xMidYMid meet">

<g transform="translate(0.000000,768.000000) scale(0.100000,-0.100000)"
fill="#000000" stroke="none">
<path d="M3715 5653 c-65 -115 -143 -248 -172 -296 -29 -49 -53 -90 -53 -92 0
-2 -44 -81 -99 -174 l-99 -170 58 -98 c32 -54 56 -101 54 -104 -2 -3 -51 -9
-110 -13 -59 -4 -115 -11 -124 -16 -14 -8 -106 -157 -178 -290 -19 -36 -23
-43 -74 -126 -21 -34 -38 -65 -38 -68 0 -4 -8 -19 -19 -34 -10 -15 -36 -58
-58 -97 -22 -38 -59 -102 -81 -141 -23 -38 -42 -73 -42 -77 0 -4 96 -6 212 -5
l213 3 141 245 141 245 74 7 c41 4 93 9 116 11 l43 5 46 -76 c54 -89 61 -62
-71 -288 -47 -81 -85 -148 -85 -150 0 -2 96 -4 213 -4 l212 0 103 179 c56 98
102 181 102 184 0 4 -25 47 -55 97 -30 50 -55 92 -55 94 0 2 44 7 98 11 53 3
107 9 119 12 16 3 50 53 123 178 l101 173 -104 177 c-56 98 -106 178 -111 179
-5 0 -54 -78 -109 -176 -115 -199 -91 -181 -252 -194 l-80 -6 -45 82 c-25 45
-44 85 -43 90 1 4 28 53 60 107 170 292 263 456 263 461 0 11 -204 362 -210
362 -3 0 -59 -93 -125 -207z"/>
<path d="M4497 4497 c-32 -56 -76 -133 -99 -172 -82 -141 -107 -183 -186 -323
-45 -78 -82 -144 -82 -147 0 -3 196 -5 435 -5 239 0 435 2 435 4 0 5 -19 37
-220 381 -68 116 -142 243 -164 284 -23 41 -45 76 -51 78 -5 1 -36 -43 -68
-100z"/>
<path d="M2542 3623 c-22 -38 -59 -102 -82 -143 -24 -41 -59 -102 -78 -135
-19 -33 -41 -71 -48 -85 -11 -20 -14 -140 -14 -627 l0 -603 190 0 190 0 -1
560 0 560 48 85 c45 79 50 85 81 85 l32 0 0 -645 0 -645 185 0 185 0 0 645 0
645 80 0 80 0 0 -645 0 -645 185 0 185 0 0 830 0 830 -590 0 -589 0 -39 -67z"/>
<path d="M3920 2860 l0 -830 589 0 589 0 118 203 c65 111 165 285 224 387 58
102 113 196 123 210 16 25 15 28 -30 105 -25 44 -71 125 -103 180 -31 55 -119
207 -194 338 l-138 237 -589 0 -589 0 0 -830z m1041 327 c42 -72 102 -176 133
-230 l57 -98 -97 -167 c-53 -92 -113 -195 -132 -229 l-36 -63 -298 0 -298 0 0
460 0 460 298 0 297 0 76 -133z"/>
<path d="M2091 2837 c-67 -117 -222 -385 -373 -644 -48 -83 -88 -154 -88 -157
0 -3 119 -6 265 -6 l265 0 0 460 c0 253 -1 460 -2 460 -2 0 -32 -51 -67 -113z"/>
<path d="M5630 2619 c-24 -41 -55 -94 -70 -119 -15 -25 -64 -110 -110 -190
-46 -80 -101 -174 -122 -210 l-38 -65 377 -3 c207 -1 378 0 380 2 3 2 -26 55
-63 118 -37 62 -86 147 -109 188 -23 41 -66 116 -95 165 -29 50 -65 112 -80
139 l-28 48 -42 -73z"/>
</g>
</svg>
