<?xml version="1.0" encoding="UTF-8"?>
<svg version="1.1" xmlns="http://www.w3.org/2000/svg" width="768" height="768">
<path d="M0 0 C253.44 0 506.88 0 768 0 C768 253.44 768 506.88 768 768 C514.56 768 261.12 768 0 768 C0 514.56 0 261.12 0 0 Z " fill="#FEFEFE" transform="translate(0,0)"/>
<path d="M0 0 C29.019375 -0.309375 29.019375 -0.309375 58.625 -0.625 C67.7837085 -0.76156006 67.7837085 -0.76156006 77.12744141 -0.90087891 C84.59057617 -0.94604492 84.59057617 -0.94604492 88.08578491 -0.95443726 C90.5240402 -0.96978151 92.9622201 -1.00493071 95.3999939 -1.05575562 C99.09693865 -1.12897149 102.78925535 -1.13906201 106.48681641 -1.13525391 C107.57069452 -1.17123499 108.65457264 -1.20721607 109.77129555 -1.24428749 C112.82160167 -1.2022299 115.13821639 -1.06483747 118 0 C120.75375172 3.02552619 122.3140757 6.3037744 124 10 C124.97989801 11.66692906 125.97741369 13.32375574 127 14.96484375 C136.24360234 30.27228562 136.24360234 30.27228562 140.33203125 37.93359375 C142.72084573 42.32520819 145.20635907 46.66004794 147.6875 51 C148.19885498 51.89912109 148.71020996 52.79824219 149.23706055 53.72460938 C151.85308409 58.31049335 154.50896438 62.86341363 157.2578125 67.37109375 C157.77126221 68.22380859 158.28471191 69.07652344 158.8137207 69.95507812 C159.79051776 71.57294301 160.78066728 73.18284403 161.78588867 74.78320312 C162.22392822 75.51345703 162.66196777 76.24371094 163.11328125 76.99609375 C163.50298096 77.62700928 163.89268066 78.2579248 164.29418945 78.90795898 C165.62271205 82.84573488 164.43003799 86.09542619 162.69995117 89.73461914 C162.15314697 90.65879639 161.60634277 91.58297363 161.04296875 92.53515625 C160.12523682 94.10378418 160.12523682 94.10378418 159.18896484 95.70410156 C158.52848145 96.81237305 157.86799805 97.92064453 157.1875 99.0625 C156.50111499 100.22955515 155.81574284 101.39720654 155.13134766 102.56542969 C153.74667837 104.92793622 152.35820619 107.28814223 150.96728516 109.64697266 C148.22417267 114.32231479 145.54835318 119.03455872 142.875 123.75 C136.71072379 134.57481572 130.3842936 145.30367047 124 156 C123.64617374 156.7996326 123.29234749 157.59926519 122.92779922 158.42312908 C119.49110474 165.44121622 119.49110474 165.44121622 115.56796837 166.91139126 C112.49995276 167.23395896 109.57043111 167.23761947 106.48681641 167.13525391 C105.31645529 167.13645926 104.14609417 167.1376646 102.94026756 167.13890648 C99.15875206 167.13145284 95.38219319 167.05538449 91.6015625 166.9765625 C89.26459119 166.96185564 86.92758702 166.95165631 84.59057617 166.94604492 C75.93488107 166.89366167 67.27989159 166.75404794 58.625 166.625 C29.605625 166.315625 29.605625 166.315625 0 166 C0 111.22 0 56.44 0 0 Z " fill="#010101" transform="translate(392,399)"/>
<path d="M0 0 C0.86925078 0.00092179 1.73850157 0.00184359 2.63409328 0.00279331 C3.62626134 0.00141582 4.61842939 0.00003832 5.64066315 -0.00138092 C6.74253181 0.00221719 7.84440046 0.0058153 8.97965908 0.00952244 C10.14941752 0.0094019 11.31917597 0.00928137 12.52438164 0.00915718 C16.33102631 0.00990676 20.13762272 0.01753704 23.94425869 0.02539158 C26.28634016 0.02686086 28.62842195 0.02788165 30.97050381 0.02844334 C39.67920834 0.03369784 48.38790586 0.0476589 57.09660244 0.06054783 C76.54597744 0.08117283 95.99535244 0.10179783 116.03410244 0.12304783 C116.03410244 54.90304783 116.03410244 109.68304783 116.03410244 166.12304783 C103.82410244 166.12304783 91.61410244 166.12304783 79.03410244 166.12304783 C79.03410244 123.55304783 79.03410244 80.98304783 79.03410244 37.12304783 C73.75410244 37.12304783 68.47410244 37.12304783 63.03410244 37.12304783 C63.03410244 79.69304783 63.03410244 122.26304783 63.03410244 166.12304783 C50.82410244 166.12304783 38.61410244 166.12304783 26.03410244 166.12304783 C26.03410244 123.55304783 26.03410244 80.98304783 26.03410244 37.12304783 C19.22623312 37.32945263 19.22623312 37.32945263 16.63566494 40.80444431 C15.93320519 42.03121679 15.27701243 43.28518271 14.65910244 44.55664158 C14.31750088 45.25889362 13.97589931 45.96114567 13.62394619 46.68467808 C9.07185613 57.28398869 9.93737093 68.87537988 10.03410244 80.18554783 C10.02657042 82.67376055 10.01552461 85.16196487 10.00114346 87.65014744 C9.97289861 94.14731811 9.99187555 100.6434943 10.02122402 107.14062595 C10.04273045 113.79110601 10.01883724 120.44132393 9.99894619 127.09179783 C9.96663156 140.10253843 9.98848643 153.11234686 10.03410244 166.12304783 C-2.50589756 166.12304783 -15.04589756 166.12304783 -27.96589756 166.12304783 C-28.284046 150.63096703 -28.5410227 135.14054689 -28.69126797 119.64606571 C-28.76293924 112.44871254 -28.86031655 105.25355781 -29.0220499 98.05761814 C-29.16323595 91.77279236 -29.25228784 85.4895601 -29.28313649 79.20319223 C-29.30113081 75.88397469 -29.34993748 72.57286301 -29.44611835 69.25447178 C-29.96949961 50.42269814 -26.54964033 38.29178371 -15.76681995 22.78964329 C-12.80494067 18.40403852 -10.24460459 13.7962563 -7.65339756 9.18554783 C-2.48430437 0.15549552 -2.48430437 0.15549552 0 0 Z " fill="#030303" transform="translate(259.96589756011963,398.8769521713257)"/>
<path d="M0 0 C0.66 0 1.32 0 2 0 C3.41699219 2.02856445 3.41699219 2.02856445 5.046875 4.86328125 C5.645 5.89646484 6.243125 6.92964844 6.859375 7.99414062 C7.48328125 9.08919922 8.1071875 10.18425781 8.75 11.3125 C9.3584375 12.36501953 9.966875 13.41753906 10.59375 14.50195312 C11.8120812 16.61711146 13.0198011 18.7384176 14.21679688 20.86572266 C15.39813109 22.94211485 16.61288292 24.99987378 17.86132812 27.03662109 C22.1003451 34.15108047 22.1003451 34.15108047 21.609375 38.3046875 C21.07828125 39.19414062 20.5471875 40.08359375 20 41 C19.42765625 41.99257812 18.8553125 42.98515625 18.265625 44.0078125 C17.60046875 45.03648437 16.9353125 46.06515625 16.25 47.125 C13.58372176 51.3217412 11.16530108 55.51473348 9 60 C6.34094445 65.47664558 3.25887576 70.5880995 0.03125 75.74609375 C-1.99770887 78.99632979 -3.9833042 82.26679684 -5.9375 85.5625 C-6.50339844 86.51253906 -7.06929688 87.46257812 -7.65234375 88.44140625 C-9.41855344 91.57135989 -9.41855344 91.57135989 -10 95 C-8.77111141 97.35319092 -7.53813654 99.43959448 -6.0625 101.625 C-2 107.7831803 -2 107.7831803 -2 110 C-1.45061768 109.93941406 -0.90123535 109.87882812 -0.33520508 109.81640625 C2.17206752 109.54149181 4.67977015 109.27071044 7.1875 109 C8.05181641 108.90460938 8.91613281 108.80921875 9.80664062 108.7109375 C13.88792925 108.27309811 17.88788502 107.86378087 22 108 C22.38478516 106.69675781 22.38478516 106.69675781 22.77734375 105.3671875 C24.03126208 101.91390443 25.57875263 99.21082924 27.5625 96.125 C32.32275257 88.56973675 36.67012403 80.80780875 41 73 C41.99 73 42.98 73 44 73 C45.67224214 75.45159902 47.12898657 77.84955433 48.5625 80.4375 C49.44298936 81.9940676 50.324532 83.55003978 51.20703125 85.10546875 C51.88886475 86.31468994 51.88886475 86.31468994 52.58447266 87.54833984 C53.98862631 89.98030103 55.45414633 92.36130911 56.94921875 94.73828125 C57.41835693 95.4950415 57.88749512 96.25180176 58.37084961 97.03149414 C59.27641929 98.48819652 60.19487176 99.93698421 61.12719727 101.37670898 C64.12973721 106.28416926 64.12973721 106.28416926 63.5546875 109.45703125 C63.04164063 110.29621094 62.52859375 111.13539063 62 112 C61.29675622 113.30973952 60.59654728 114.62111055 59.8984375 115.93359375 C58.61672668 118.24370169 57.31573504 120.53952799 55.98876953 122.82397461 C53.82608622 126.57290323 51.84919902 130.17009996 50.40625 134.2578125 C48.84726062 138.32794274 47.41677213 141.11737442 44 144 C36.20444424 145.97647757 27.96470671 145.50013563 20 145 C20.62648438 146.01320313 21.25296875 147.02640625 21.8984375 148.0703125 C22.72427437 149.42168192 23.54977757 150.77325528 24.375 152.125 C24.99375 153.12273437 24.99375 153.12273437 25.625 154.140625 C26.7979433 156.07030591 27.9073355 158.0239818 29 160 C29.804375 161.41925781 29.804375 161.41925781 30.625 162.8671875 C31.25000657 168.08859653 28.32057525 171.67074278 25.625 176 C24.57513784 177.74977026 23.52566643 179.49977502 22.4765625 181.25 C21.32929688 183.1475 20.18203125 185.045 19 187 C16.36 191.62 13.72 196.24 11 201 C-3.19 201 -17.38 201 -32 201 C-30.34351983 196.85879957 -28.5812559 193.38707701 -26.33984375 189.5625 C-25.62153685 188.32564157 -24.90344435 187.08865861 -24.18554688 185.8515625 C-23.06032021 183.92119769 -21.93291095 181.99218491 -20.80151367 180.06542969 C-19.70386888 178.19301889 -18.61510727 176.31566369 -17.52734375 174.4375 C-16.87499756 173.32246094 -16.22265137 172.20742188 -15.55053711 171.05859375 C-13.49667042 167.00713069 -12.75766337 164.36015698 -13.5546875 159.88671875 C-15.12429953 156.08342806 -16.39354206 153.09669107 -20 151 C-28.16862343 149.40001932 -36.76205612 150.28165498 -45 151 C-45.1549292 152.07495728 -45.1549292 152.07495728 -45.31298828 153.17163086 C-46.08151139 156.33557551 -47.28081775 158.4884464 -48.9921875 161.25390625 C-49.91922485 162.7699646 -49.91922485 162.7699646 -50.86499023 164.31665039 C-51.52829346 165.38778076 -52.19159668 166.45891113 -52.875 167.5625 C-59.58299282 178.54938281 -65.87708588 189.67680265 -72 201 C-86.19 201 -100.38 201 -115 201 C-113.33494264 196.00482792 -111.44054203 192.04975558 -108.75 187.625 C-107.85352894 186.12538105 -106.95773667 184.62535618 -106.0625 183.125 C-105.57523437 182.31160156 -105.08796875 181.49820313 -104.5859375 180.66015625 C-101.60907462 175.66694536 -98.68118935 170.64510978 -95.75 165.625 C-95.17217773 164.63967285 -94.59435547 163.6543457 -93.99902344 162.63916016 C-91.26213345 157.95598494 -88.57635388 153.25583874 -85.99609375 148.484375 C-82.90770312 142.77998386 -79.6297747 137.19863651 -76.3125 131.625 C-75.74466797 130.66722656 -75.17683594 129.70945312 -74.59179688 128.72265625 C-73.06385884 126.14683574 -71.53393076 123.57225585 -70 121 C-69.55897949 120.0927417 -69.11795898 119.1854834 -68.66357422 118.25073242 C-67 116 -67 116 -64.45629883 115.2487793 C-63.46654053 115.19117432 -62.47678223 115.13356934 -61.45703125 115.07421875 C-60.38388672 115.00009766 -59.31074219 114.92597656 -58.20507812 114.84960938 C-56.52575195 114.76936523 -56.52575195 114.76936523 -54.8125 114.6875 C-53.68134766 114.61466797 -52.55019531 114.54183594 -51.38476562 114.46679688 C-48.59042168 114.28993966 -45.79661615 114.13525372 -43 114 C-45.92554192 107.93087703 -48.91128335 102.4320144 -53.05859375 97.10546875 C-54 95 -54 95 -53.2590332 92.72900391 C-51.90722025 89.79889626 -50.40367098 87.02920613 -48.796875 84.23046875 C-48.15339111 83.10664795 -47.50990723 81.98282715 -46.84692383 80.82495117 C-46.14805502 79.61240646 -45.4490777 78.39992429 -44.75 77.1875 C-44.02673826 75.92760422 -43.30367776 74.66759289 -42.58081055 73.4074707 C-37.46277438 64.49574368 -32.28708729 55.61801453 -27.09204102 46.75097656 C-23.05662313 39.85024482 -19.10559056 32.90541574 -15.1875 25.9375 C-11.43947162 19.28700747 -7.68717675 12.64025362 -3.8125 6.0625 C-3.44987061 5.43529053 -3.08724121 4.80808105 -2.71362305 4.16186523 C-1.86584939 2.73917644 -0.94089304 1.3628954 0 0 Z " fill="#030303" transform="translate(383,182)"/>
<path d="M0 0 C19.8 0 39.6 0 60 0 C64.29 7.59 68.58 15.18 73 23 C77.53351715 30.42648012 77.53351715 30.42648012 82.18945312 37.77539062 C86.10891063 44.15337395 86.10891063 44.15337395 85.5859375 48.21875 C84.80089844 49.59546875 84.80089844 49.59546875 84 51 C83.15501953 52.51400391 83.15501953 52.51400391 82.29296875 54.05859375 C81.59816406 55.17363281 80.90335937 56.28867187 80.1875 57.4375 C75.36243706 65.28064643 70.84504561 73.28644419 66.3425293 81.31811523 C65.80797119 82.27016846 65.27341309 83.22222168 64.72265625 84.203125 C64.00734741 85.48171387 64.00734741 85.48171387 63.27758789 86.78613281 C62.25152772 88.56414038 61.13870512 90.29194232 60 92 C57.48165894 92.36076355 57.48165894 92.36076355 54.26513672 92.34057617 C53.04721436 92.34021362 51.82929199 92.33985107 50.57446289 92.33947754 C49.28918701 92.32412964 48.00391113 92.30878174 46.6796875 92.29296875 C45.50220947 92.28994751 44.32473145 92.28692627 43.11157227 92.28381348 C38.69929277 92.26807862 34.28713788 92.22619495 29.875 92.1875 C15.086875 92.0946875 15.086875 92.0946875 0 92 C0 61.64 0 31.28 0 0 Z " fill="#FDFDFD" transform="translate(429,436)"/>
<path d="M0 0 C4.32019875 1.51738524 5.77699213 4.36070551 8.0625 8.1875 C9.06990234 9.84845703 9.06990234 9.84845703 10.09765625 11.54296875 C12 15 12 15 13.4609375 18.46875 C15.16260681 22.3730877 17.24689646 25.75374971 19.5625 29.3125 C23.70625574 35.80657081 27.53199616 42.42257121 31.22631836 49.1809082 C34.65702207 55.4405687 38.25800027 61.5879238 41.953125 67.69506836 C45 72.78691249 45 72.78691249 45 75 C16.29 75 -12.42 75 -42 75 C-40.51102715 70.53308145 -39.13068235 67.14599898 -36.875 63.125 C-36.06675781 61.67480469 -36.06675781 61.67480469 -35.2421875 60.1953125 C-34.83226562 59.47085938 -34.42234375 58.74640625 -34 58 C-33.34 58 -32.68 58 -32 58 C-31.75507813 57.1646875 -31.51015625 56.329375 -31.2578125 55.46875 C-29.82989345 51.53088627 -27.96846112 48.1138074 -25.875 44.5 C-25.47684082 43.80293945 -25.07868164 43.10587891 -24.66845703 42.38769531 C-23.84763743 40.9518308 -23.02455496 39.51725751 -22.19921875 38.08398438 C-21.08510546 36.14789499 -19.97831811 34.20788123 -18.875 32.265625 C-15.16544748 25.74050688 -11.39929744 19.24985901 -7.60546875 12.7734375 C-5.66703331 9.42480207 -3.79460505 6.04306556 -1.9453125 2.64453125 C-1 1 -1 1 0 0 Z " fill="#ED1B24" transform="translate(455,308)"/>
<path d="M0 0 C0.66 0 1.32 0 2 0 C2.83848804 1.45537568 3.67063934 2.91440373 4.5 4.375 C4.9640625 5.18710937 5.428125 5.99921875 5.90625 6.8359375 C7 9 7 9 7 11 C7.66 11 8.32 11 9 11 C9.495 12.03125 9.99 13.0625 10.5 14.125 C14.38752915 21.9000583 18.87965292 29.37045222 23.26171875 36.875 C23.62620117 37.50325684 23.99068359 38.13151367 24.36621094 38.77880859 C25.38492956 40.53440345 26.40911492 42.28682277 27.43359375 44.0390625 C28.71152581 46.45470465 29.53858483 48.33548985 30 51 C30.66 51 31.32 51 32 51 C33.17176518 53.12232979 34.33754785 55.24757791 35.5 57.375 C35.83386719 57.97828125 36.16773438 58.5815625 36.51171875 59.203125 C39 63.7734375 39 63.7734375 39 66 C13.92 66 -11.16 66 -37 66 C-35.76691132 62.9172783 -34.70605138 60.2944783 -33.1171875 57.46875 C-32.75882813 56.83001953 -32.40046875 56.19128906 -32.03125 55.53320312 C-31.6496875 54.86224609 -31.268125 54.19128906 -30.875 53.5 C-30.47539063 52.79294922 -30.07578125 52.08589844 -29.6640625 51.35742188 C-26.57901851 45.93418789 -23.32529961 40.62835244 -20.02734375 35.33203125 C-16.58969573 29.68210107 -13.39454074 23.89784704 -10.18066406 18.11865234 C-8.11155563 14.4057237 -6.02331723 10.70355899 -3.9375 7 C-3.17569997 5.64587905 -2.41397341 4.29171677 -1.65234375 2.9375 C-1.10707031 1.968125 -0.56179688 0.99875 0 0 Z " fill="#EB1B24" transform="translate(566,499)"/>
<path d="M0 0 C0.33 0 0.66 0 1 0 C1 30.36 1 60.72 1 92 C-16.82 92 -34.64 92 -53 92 C-48.40979868 83.39337252 -43.99551347 75.23314554 -38.859375 67.03125 C-37.18927365 64.30856377 -35.63384362 61.56424766 -34.125 58.75 C-28.71336914 48.66201421 -22.79120836 38.84648472 -16.75 29.125 C-13.83715989 24.42592928 -11.13019861 19.659065 -8.515625 14.7890625 C-6.78439669 11.60324545 -4.99748824 8.45422756 -3.1875 5.3125 C-2.60355469 4.29800781 -2.01960938 3.28351563 -1.41796875 2.23828125 C-0.95003906 1.49964844 -0.48210937 0.76101563 0 0 Z " fill="#EC1B24" transform="translate(215,473)"/>
<path d="M0 0 C0.33 0 0.66 0 1 0 C1 30.36 1 60.72 1 92 C-16.82 92 -34.64 92 -53 92 C-44 75.125 -44 75.125 -40 69 C-39.11663163 71.4667645 -38.8687594 72.63859372 -39.77734375 75.140625 C-40.35162109 76.18476562 -40.35162109 76.18476562 -40.9375 77.25 C-41.31777344 77.95640625 -41.69804687 78.6628125 -42.08984375 79.390625 C-42.54037109 80.18726563 -42.54037109 80.18726563 -43 81 C-43.66 81 -44.32 81 -45 81 C-45.66 83.64 -46.32 86.28 -47 89 C-31.82 89 -16.64 89 -1 89 C-1.36716591 74.35663057 -1.36716591 74.35663057 -1.74829102 59.71362305 C-1.79232788 57.85466669 -1.83589642 55.99569915 -1.87890625 54.13671875 C-1.90561401 53.19977173 -1.93232178 52.26282471 -1.95983887 51.29748535 C-2.10217186 44.79817341 -1.71508961 38.46036862 -1 32 C-1.66 31.67 -2.32 31.34 -3 31 C-2.34 31 -1.68 31 -1 31 C-1.01160156 30.20078125 -1.02320313 29.4015625 -1.03515625 28.578125 C-1.09748443 20.99189461 -0.76154197 13.54742488 0 6 C-0.25394531 6.63808594 -0.50789063 7.27617187 -0.76953125 7.93359375 C-1.11371094 8.75988281 -1.45789063 9.58617187 -1.8125 10.4375 C-2.14894531 11.26121094 -2.48539063 12.08492188 -2.83203125 12.93359375 C-4 15 -4 15 -7 16 C-7 11.36566865 -5.91609111 9.67107332 -3.5625 5.75 C-2.60537109 4.13351562 -2.60537109 4.13351562 -1.62890625 2.484375 C-1.09136719 1.66453125 -0.55382812 0.8446875 0 0 Z " fill="#D71827" transform="translate(215,473)"/>
<path d="M0 0 C2.73170064 3.42316236 4.86447443 7.12807562 7 10.9375 C9.80531193 15.91768221 9.80531193 15.91768221 12.75 20.81640625 C14 23 14 23 14 25 C-14.71 25 -43.42 25 -73 25 C-72.34 23.02 -71.68 21.04 -71 19 C-70.34 18.67 -69.68 18.34 -69 18 C-69 19.32 -69 20.64 -69 22 C-60.75 22 -52.5 22 -44 22 C-44.33 21.01 -44.66 20.02 -45 19 C-43.68 19.33 -42.36 19.66 -41 20 C-41 20.66 -41 21.32 -41 22 C-24.5 22 -8 22 9 22 C8.01 18.535 8.01 18.535 7 15 C6.01 14.67 5.02 14.34 4 14 C2.8125 11.4375 2.8125 11.4375 2 9 C1.67 9 1.34 9 1 9 C0.505 4.545 0.505 4.545 0 0 Z " fill="#CC1E2D" transform="translate(486,358)"/>
<path d="M0 0 C0.66 0 1.32 0 2 0 C2.15356688 12.23874031 2.30174866 24.47753264 2.4429636 36.71642208 C2.50869924 42.39879374 2.57632353 48.08113009 2.64819336 53.76342773 C2.71742125 59.24224465 2.78178051 64.72109868 2.84269524 70.20001411 C2.86685991 72.29531511 2.89280977 74.39059627 2.92053413 76.4858532 C2.95892436 79.40972665 2.99109311 82.33360487 3.02172852 85.25756836 C3.03467453 86.1329425 3.04762054 87.00831665 3.06095886 87.91021729 C3.0789946 89.94016643 3.04527441 91.97047566 3 94 C1.30764367 95.69235633 -0.84291729 95.16833809 -3.16235352 95.20532227 C-4.81395226 95.2352401 -4.81395226 95.2352401 -6.49891663 95.26576233 C-7.6968132 95.28247482 -8.89470978 95.29918732 -10.12890625 95.31640625 C-11.34827377 95.33718735 -12.5676413 95.35796844 -13.82395935 95.37937927 C-17.73674645 95.44500428 -21.64960317 95.50381972 -25.5625 95.5625 C-28.20768962 95.60567291 -30.85287209 95.64928678 -33.49804688 95.69335938 C-39.99862336 95.8006988 -46.49926979 95.90244067 -53 96 C-53.66 94.68 -54.32 93.36 -55 92 C-36.52 92.33 -18.04 92.66 1 93 C0.67 62.31 0.34 31.62 0 0 Z " fill="#FDD0CD" transform="translate(215,472)"/>
<path d="M0 0 C1.9375 0.3125 1.9375 0.3125 4 1 C4.495 2.485 4.495 2.485 5 4 C5.66 3.34 6.32 2.68 7 2 C7.2226746 3.43534841 7.42761906 4.87345525 7.625 6.3125 C7.74101563 7.11300781 7.85703125 7.91351562 7.9765625 8.73828125 C8 11 8 11 6 14 C3.45647517 14.28660203 1.15713036 14.37857678 -1.38720703 14.34057617 C-2.52881287 14.34123329 -2.52881287 14.34123329 -3.69348145 14.34190369 C-6.21518393 14.33980959 -8.73622583 14.31645001 -11.2578125 14.29296875 C-13.00372962 14.28737499 -14.74965144 14.28310385 -16.49557495 14.28010559 C-21.0955704 14.26863948 -25.69528263 14.23915727 -30.29516602 14.20599365 C-34.98710295 14.17533071 -39.67908555 14.16160835 -44.37109375 14.14648438 C-53.58085375 14.11428913 -62.79040334 14.06307159 -72 14 C-71.67 12.68 -71.34 11.36 -71 10 C-45.92 10.33 -20.84 10.66 5 11 C3.35 8.03 1.7 5.06 0 2 C0 1.34 0 0.68 0 0 Z " fill="#FCD3D1" transform="translate(600,554)"/>
<path d="M0 0 C0.99 0.33 1.98 0.66 3 1 C5.14255793 0.61067144 5.14255793 0.61067144 7 0 C6.01 2.31 5.02 4.62 4 7 C32.71 7 61.42 7 91 7 C91 6.34 91 5.68 91 5 C91.66 5 92.32 5 93 5 C92.34 6.32 91.68 7.64 91 9 C61.96 9 32.92 9 3 9 C2.01 6.03 1.02 3.06 0 0 Z " fill="#FEE5E4" transform="translate(409,376)"/>
<path d="M0 0 C0.99 1.98 0.99 1.98 2 4 C2.66 4 3.32 4 4 4 C5.17176518 6.12232979 6.33754785 8.24757791 7.5 10.375 C7.83386719 10.97828125 8.16773438 11.5815625 8.51171875 12.203125 C11 16.7734375 11 16.7734375 11 19 C-14.08 19 -39.16 19 -65 19 C-63.46392719 15.15981797 -61.86686467 11.78151668 -59.875 8.1875 C-59.33617187 7.21167969 -58.79734375 6.23585938 -58.2421875 5.23046875 C-57.83226562 4.49441406 -57.42234375 3.75835938 -57 3 C-56.67 3 -56.34 3 -56 3 C-56 4.98 -56 6.96 -56 9 C-56.99 9.33 -57.98 9.66 -59 10 C-59.33 12.64 -59.66 15.28 -60 18 C-53.6542933 17.87993461 -47.30868782 17.75561433 -40.96313477 17.62768555 C-38.81341704 17.58490589 -36.66367756 17.5432034 -34.51391602 17.50268555 C-20.99056609 17.24693226 -7.50168193 16.81697756 6 16 C6 14.68 6 13.36 6 12 C4.68 12 3.36 12 2 12 C1.7834375 10.4221875 1.7834375 10.4221875 1.5625 8.8125 C1.12473034 5.84539451 0.62195134 2.93205634 0 0 Z " fill="#A6252C" transform="translate(594,546)"/>
<path d="M0 0 C0.66 0.33 1.32 0.66 2 1 C1.56429687 1.73863281 1.12859375 2.47726562 0.6796875 3.23828125 C-2.20007453 8.1438499 -5.05578962 13.05221403 -7.75 18.0625 C-10.62994477 23.37872237 -13.61428657 28.632086 -16.625 33.875 C-17.09260742 34.69621338 -17.56021484 35.51742676 -18.04199219 36.36352539 C-20.43541608 40.5128366 -22.85819503 44.35668626 -26 48 C-25.835 47.071875 -25.67 46.14375 -25.5 45.1875 C-24.92251612 42.04378647 -24.92251612 42.04378647 -25 39 C-24.43463261 35.98470724 -23.77276293 34.6591444 -22 32 C-19.375 31.8125 -19.375 31.8125 -17 32 C-17 31.21625 -17 30.4325 -17 29.625 C-17 25.75 -17 21.875 -17 18 C-16.34 18 -15.68 18 -15 18 C-14.67 17.34 -14.34 16.68 -14 16 C-11.67843403 15.59270772 -9.3431213 15.25561323 -7 15 C-7.33 13.68 -7.66 12.36 -8 11 C-7.01 11 -6.02 11 -5 11 C-5.33 10.01 -5.66 9.02 -6 8 C-4.6875 5.3125 -4.6875 5.3125 -3 3 C-2.34 3 -1.68 3 -1 3 C-0.67 2.01 -0.34 1.02 0 0 Z " fill="#F7F2EF" transform="translate(209,480)"/>
<path d="M0 0 C0.66 0 1.32 0 2 0 C2.83848804 1.45537568 3.67063934 2.91440373 4.5 4.375 C5.19609375 5.59316406 5.19609375 5.59316406 5.90625 6.8359375 C7 9 7 9 7 11 C7.66 11 8.32 11 9 11 C11.18326108 15.27113698 13.31326082 19.50202887 15 24 C11.17324037 22.49663014 9.51559112 20.16477592 7 17 C6.01 16.67 5.02 16.34 4 16 C4 15.01 4 14.02 4 13 C4.66 13 5.32 13 6 13 C6 12.01 6 11.02 6 10 C5.5875 10.495 5.175 10.99 4.75 11.5 C3 13 3 13 -1 13 C-5.36987782 14.97684949 -6.32871831 16.65466761 -8 21 C-10.125 22.3125 -10.125 22.3125 -12 23 C-10.2010497 17.92365174 -7.50973545 13.36286389 -4.875 8.6875 C-4.40707031 7.85154297 -3.93914063 7.01558594 -3.45703125 6.15429688 C-2.3073741 4.10133767 -1.15496198 2.04997798 0 0 Z " fill="#D72229" transform="translate(566,499)"/>
<path d="M0 0 C0.8545021 0.00092179 1.70900419 0.00184359 2.58940029 0.00279331 C4.05552509 0.00073132 4.05552509 0.00073132 5.55126858 -0.00137234 C6.63235897 0.00222294 7.71344936 0.00581821 8.82730007 0.00952244 C10.52464039 0.0093034 10.52464039 0.0093034 12.25627041 0.00907993 C16.01686389 0.00977964 19.77740855 0.01757472 23.53799343 0.02539158 C26.13731261 0.02725555 28.73663215 0.02867955 31.33595181 0.0296793 C37.49122295 0.03311442 43.64647378 0.04100527 49.80173725 0.05102879 C56.80767064 0.06219089 63.81360485 0.06770062 70.81954491 0.07272422 C85.23481851 0.08318791 99.65007722 0.10078675 114.06533718 0.12304783 C114.06533718 0.45304783 114.06533718 0.78304783 114.06533718 1.12304783 C113.48849619 1.12451439 112.9116552 1.12598095 112.31733418 1.12749195 C98.27011209 1.164572 84.22312495 1.2236024 70.17609882 1.30695057 C63.38298944 1.34673031 56.58999573 1.3791281 49.79678249 1.39404392 C43.24142487 1.40845835 36.68636796 1.44358185 30.13116741 1.49135685 C27.62976223 1.50619843 25.12830588 1.51409043 22.6268568 1.51493168 C19.1240275 1.5172946 15.62219426 1.54432222 12.1195364 1.57714939 C11.0844746 1.57211903 10.0494128 1.56708866 8.9829855 1.56190586 C3.03948749 1.64812763 -0.36169509 2.22981535 -4.93466282 6.12304783 C-2.64433054 0.1681839 -2.64433054 0.1681839 0 0 Z " fill="#131313" transform="translate(259.9346628189087,398.8769521713257)"/>
<path d="M0 0 C0.33 0 0.66 0 1 0 C1 28.71 1 57.42 1 87 C0.67 87 0.34 87 0 87 C0 60.27 0 33.54 0 6 C-1.32 8.97 -2.64 11.94 -4 15 C-4.99 15.33 -5.98 15.66 -7 16 C-7 11.36566865 -5.91609111 9.67107332 -3.5625 5.75 C-2.92441406 4.67234375 -2.28632813 3.5946875 -1.62890625 2.484375 C-0.82259766 1.25460937 -0.82259766 1.25460937 0 0 Z " fill="#AC1C25" transform="translate(215,473)"/>
<path d="M0 0 C1.125 3.75 1.125 3.75 0 6 C26.4 5.67 52.8 5.34 80 5 C80 3.68 80 2.36 80 1 C80.66 1 81.32 1 82 1 C82.99 3.97 82.99 3.97 84 7 C55.29 7 26.58 7 -3 7 C-1 1 -1 1 0 0 Z " fill="#B14D53" transform="translate(416,376)"/>
<path d="M0 0 C0.88336837 2.4667645 1.1312406 3.63859372 0.22265625 6.140625 C-0.16019531 6.83671875 -0.54304687 7.5328125 -0.9375 8.25 C-1.31777344 8.95640625 -1.69804687 9.6628125 -2.08984375 10.390625 C-2.39019531 10.92171875 -2.69054687 11.4528125 -3 12 C-3.66 12 -4.32 12 -5 12 C-5.66 14.64 -6.32 17.28 -7 20 C-7.66 20 -8.32 20 -9 20 C-9 20.66 -9 21.32 -9 22 C7.5 21.67 24 21.34 41 21 C41 21.66 41 22.32 41 23 C23.18 23 5.36 23 -13 23 C-4 6.125 -4 6.125 0 0 Z " fill="#A8262D" transform="translate(175,542)"/>
<path d="M0 0 C0.2475 0.5775 0.495 1.155 0.75 1.75 C1.92330271 4.14236467 1.92330271 4.14236467 4.1875 6 C4.785625 6.66 5.38375 7.32 6 8 C5.75 10.25 5.75 10.25 5 12 C6.32 12.66 7.64 13.32 9 14 C9 14.66 9 15.32 9 16 C9.99 16.66 10.98 17.32 12 18 C12.34342449 19.33076989 12.67619874 20.66431979 13 22 C13.47308594 22.45246094 13.94617188 22.90492188 14.43359375 23.37109375 C16.22031199 25.2291025 16.77595959 26.688972 17.5625 29.125 C18.20420651 31.21478269 18.20420651 31.21478269 19 33 C19.66 33.33 20.32 33.66 21 34 C22.10546875 35.70703125 22.10546875 35.70703125 23.1875 37.8125 C23.55230469 38.49957031 23.91710937 39.18664062 24.29296875 39.89453125 C25.13001367 42.38716777 24.72015713 43.52742821 24 46 C23.57178955 45.24904053 23.1435791 44.49808105 22.70239258 43.72436523 C21.09324278 40.90656032 19.48071563 38.09072259 17.8659668 35.27612305 C17.17127363 34.06367015 16.47788381 32.85046941 15.78588867 31.63647461 C12.12003472 25.20733435 8.38001894 18.97201844 4 13 C2.92863949 10.69855891 1.92010283 8.3659787 1 6 C0.608125 5.030625 0.21625 4.06125 -0.1875 3.0625 C-0.455625 2.381875 -0.72375 1.70125 -1 1 C-0.67 0.67 -0.34 0.34 0 0 Z " fill="#FCDDDC" transform="translate(463,314)"/>
<path d="M0 0 C0.66 0.99 1.32 1.98 2 3 C1.41863281 3.84175781 0.83726562 4.68351562 0.23828125 5.55078125 C-2.04060816 8.97363896 -3.96088999 12.51951146 -5.8125 16.1875 C-6.13669922 16.80302734 -6.46089844 17.41855469 -6.79492188 18.05273438 C-7.61002753 19.66374619 -8.31339875 21.33016916 -9 23 C-8.67 23.99 -8.34 24.98 -8 26 C-10.05233685 28.2477975 -11.00667261 29.0022242 -14 30 C-14.33 30.66 -14.66 31.32 -15 32 C-15.33 32.66 -15.66 33.32 -16 34 C-17.485 34.495 -17.485 34.495 -19 35 C-17.69647881 31.5610526 -16.19559532 28.41684413 -14.35546875 25.234375 C-13.84306641 24.34363281 -13.33066406 23.45289063 -12.80273438 22.53515625 C-12.26970703 21.61605469 -11.73667969 20.69695312 -11.1875 19.75 C-10.13879753 17.93259473 -9.09061564 16.11488896 -8.04296875 14.296875 C-7.53556152 13.41708984 -7.0281543 12.53730469 -6.50537109 11.63085938 C-4.29897031 7.77484659 -2.14334306 3.89134114 0 0 Z " fill="#C0363C" transform="translate(206,488)"/>
<path d="M0 0 C0.33 0.66 0.66 1.32 1 2 C0.21625 2.763125 -0.5675 3.52625 -1.375 4.3125 C-4.07257717 6.90891805 -4.07257717 6.90891805 -6 10 C-6.66 10 -7.32 10 -8 10 C-8.33 10.99 -8.66 11.98 -9 13 C-10.62890625 14.53515625 -10.62890625 14.53515625 -12.5625 16.0625 C-14.4710222 17.52753465 -14.4710222 17.52753465 -16 19 C-16 19.66 -16 20.32 -16 21 C-17.29233607 22.37310707 -18.62437146 23.71034824 -20 25 C-22 24 -22 24 -23.125 21.1875 C-24 18 -24 18 -24 14 C-22 15.375 -22 15.375 -20 17 C-20 17.66 -20 18.32 -20 19 C-19.236875 18.195625 -18.47375 17.39125 -17.6875 16.5625 C-15 14 -15 14 -12 13 C-10.79117904 10.99983534 -10.79117904 10.99983534 -10 9 C-9.34 9 -8.68 9 -8 9 C-7.690625 8.1646875 -7.690625 8.1646875 -7.375 7.3125 C-5.44999226 4.07498698 -2.96149098 2.31768859 0 0 Z " fill="#0B0B0B" transform="translate(536,459)"/>
<path d="M0 0 C0.33 0 0.66 0 1 0 C1.48990279 5.06232884 -0.2893678 9.32630846 -2 14 C-1.01 14.33 -0.02 14.66 1 15 C0.67 15.99 0.34 16.98 0 18 C-3.33333333 18.66666667 -6.66666667 19.33333333 -10 20 C-8.125 14.25 -8.125 14.25 -7 12 C-6.34 12 -5.68 12 -5 12 C-4.731875 11.13375 -4.46375 10.2675 -4.1875 9.375 C-3.02888013 6.08208036 -1.61790161 3.08872125 0 0 Z " fill="#DA1D21" transform="translate(428,354)"/>
<path d="M0 0 C2.99324263 1.0975223 3.84610901 1.67682892 5.25 4.625 C5.4975 5.40875 5.745 6.1925 6 7 C3 6 3 6 1 4 C-0.87879755 6.77735289 -1.9587508 8.71125561 -2.4375 12.0625 C-3.11649035 15.60833849 -4.16164313 16.82949181 -7 19 C-7.99 19 -8.98 19 -10 19 C-10 19.99 -10 20.98 -10 22 C-10.66 22 -11.32 22 -12 22 C-9.0274052 14.17216702 -4.80825813 6.84252118 0 0 Z " fill="#D2434B" transform="translate(455,308)"/>
<path d="M0 0 C0.66 0 1.32 0 2 0 C2 0.66 2 1.32 2 2 C2.99 2.33 3.98 2.66 5 3 C5 4.65 5 6.3 5 8 C7.64 8 10.28 8 13 8 C13 10.97 13 13.94 13 17 C12.34 17 11.68 17 11 17 C10.67 17.66 10.34 18.32 10 19 C8.99193149 17.40089132 7.99379615 15.79551738 7 14.1875 C6.443125 13.29417969 5.88625 12.40085937 5.3125 11.48046875 C4 9 4 9 4 6 C3.34 6 2.68 6 2 6 C1.34 4.02 0.68 2.04 0 0 Z " fill="#F6F5F3" transform="translate(571,504)"/>
<path d="M0 0 C0.66 1.32 1.32 2.64 2 4 C2.66 4 3.32 4 4 4 C4.84324672 5.578076 5.67423918 7.1627042 6.5 8.75 C6.9640625 9.63171875 7.428125 10.5134375 7.90625 11.421875 C9 14 9 14 9 18 C1.74 18 -5.52 18 -13 18 C-13 17.67 -13 17.34 -13 17 C-6.73 16.67 -0.46 16.34 6 16 C6 14.68 6 13.36 6 12 C4.68 12 3.36 12 2 12 C1.855625 10.948125 1.71125 9.89625 1.5625 8.8125 C1.12473034 5.84539451 0.62195134 2.93205634 0 0 Z " fill="#C81F2A" transform="translate(594,546)"/>
<path d="M0 0 C0.66 0 1.32 0 2 0 C0.45840973 4.21156106 -1.62167943 8.01336141 -3.875 11.875 C-4.21402344 12.46152344 -4.55304688 13.04804688 -4.90234375 13.65234375 C-5.58443469 14.83238701 -6.26769389 16.01175581 -6.95214844 17.19042969 C-8.64815595 20.11932243 -10.3232501 23.06004839 -12 26 C-12.99 25.01 -13.98 24.02 -15 23 C-13.90551337 20.81102675 -12.59175194 19.02181789 -11.125 17.0625 C-10.61195313 16.37285156 -10.09890625 15.68320313 -9.5703125 14.97265625 C-8 13 -8 13 -6.4375 11.53515625 C-4.66073219 9.63768411 -3.86605179 7.77069211 -2.875 5.375 C-1.08333333 1.08333333 -1.08333333 1.08333333 0 0 Z " fill="#F0F0F0" transform="translate(359,220)"/>
<path d="M0 0 C0.495 1.485 0.495 1.485 1 3 C0 4 0 4 -1.98048401 4.12025452 C-2.84874313 4.11803391 -3.71700226 4.11581329 -4.61157227 4.11352539 C-5.59251358 4.11344986 -6.5734549 4.11337433 -7.5841217 4.11329651 C-8.6507756 4.10813522 -9.7174295 4.10297394 -10.81640625 4.09765625 C-12.44569313 4.09553383 -12.44569313 4.09553383 -14.1078949 4.09336853 C-17.59279075 4.08775048 -21.07762342 4.07519492 -24.5625 4.0625 C-26.91861887 4.05748733 -29.27473874 4.05292402 -31.63085938 4.04882812 C-37.42059464 4.03777519 -43.21029281 4.02101951 -49 4 C-49 3.67 -49 3.34 -49 3 C-48.43037033 2.99191315 -47.86074066 2.98382629 -47.27384949 2.97549438 C-41.35282812 2.8895333 -35.43214481 2.79003361 -29.51147461 2.68261719 C-27.30092032 2.64429983 -25.09030308 2.60945186 -22.87963867 2.578125 C-19.70468629 2.53253448 -16.53016828 2.47452997 -13.35546875 2.4140625 C-12.36475876 2.40251129 -11.37404877 2.39096008 -10.35331726 2.37905884 C-8.97222527 2.3492543 -8.97222527 2.3492543 -7.56323242 2.31884766 C-6.7527092 2.30552399 -5.94218597 2.29220032 -5.10710144 2.2784729 C-2.69899809 2.11776223 -2.69899809 2.11776223 0 0 Z " fill="#D11D2A" transform="translate(215,560)"/>
<path d="M0 0 C0.8852947 2.47544187 1.09093521 3.71011262 0.29296875 6.25390625 C-0.07183594 7.01574219 -0.43664062 7.77757812 -0.8125 8.5625 C-1.16957031 9.32691406 -1.52664063 10.09132813 -1.89453125 10.87890625 C-4.07225702 15.05736947 -6.88747707 18.4984117 -10 22 C-10.66 22 -11.32 22 -12 22 C-10.60596497 18.16466979 -8.80677636 14.96511255 -6.5625 11.5625 C-4.11316683 7.7864447 -1.87792415 4.08724668 0 0 Z " fill="#BF2D33" transform="translate(553,522)"/>
<path d="M0 0 C0.33 0 0.66 0 1 0 C1 1.98 1 3.96 1 6 C0.01 6.33 -0.98 6.66 -2 7 C-2.33 9.64 -2.66 12.28 -3 15 C0.96 15 4.92 15 9 15 C9 15.33 9 15.66 9 16 C3.39 16 -2.22 16 -8 16 C-6.46392719 12.15981797 -4.86686467 8.78151668 -2.875 5.1875 C-2.33617187 4.21167969 -1.79734375 3.23585938 -1.2421875 2.23046875 C-0.83226562 1.49441406 -0.42234375 0.75835938 0 0 Z " fill="#A82D36" transform="translate(537,549)"/>
<path d="M0 0 C0.99 0.99 1.98 1.98 3 3 C2.13909443 7.47670898 1.60125885 9.51147718 -2 12.4375 C-5 14 -5 14 -7 14 C-5.23570801 9.02790438 -2.6060834 4.56561939 0 0 Z " fill="#EBEDEB" transform="translate(533,524)"/>
<path d="M0 0 C0.66 0.33 1.32 0.66 2 1 C0.98673527 3.01453817 -0.06166924 5.01143339 -1.125 7 C-1.99511719 8.670625 -1.99511719 8.670625 -2.8828125 10.375 C-5 13 -5 13 -8.2421875 13.375 C-9.15226562 13.25125 -10.06234375 13.1275 -11 13 C-11 12.34 -11 11.68 -11 11 C-10.34 11 -9.68 11 -9 11 C-9 10.34 -9 9.68 -9 9 C-8.34 9 -7.68 9 -7 9 C-7 8.34 -7 7.68 -7 7 C-5.125 4.875 -5.125 4.875 -3 3 C-2.34 3 -1.68 3 -1 3 C-0.67 2.01 -0.34 1.02 0 0 Z " fill="#0C0C0C" transform="translate(515,552)"/>
<path d="M0 0 C0.99 0.33 1.98 0.66 3 1 C3 1.66 3 2.32 3 3 C4.32 3.33 5.64 3.66 7 4 C4 11.57142857 4 11.57142857 1 14 C1.04125 13.0925 1.0825 12.185 1.125 11.25 C1.22720143 8.08916179 1.22720143 8.08916179 -0.0625 5.875 C-1 4 -1 4 -0.625 1.75 C-0.41875 1.1725 -0.2125 0.595 0 0 Z " fill="#F5F8F2" transform="translate(545,520)"/>
<path d="M0 0 C2.78765765 2.5303354 4.67463495 5.39339801 6.6875 8.5625 C7.31011719 9.53316406 7.93273437 10.50382812 8.57421875 11.50390625 C10 14 10 14 10 16 C8.35 15.67 6.7 15.34 5 15 C4.67 13.02 4.34 11.04 4 9 C3.01 8.67 2.02 8.34 1 8 C-0.35439668 5.29120665 -0.06501451 2.99066732 0 0 Z " fill="#D02B30" transform="translate(467,327)"/>
<path d="M0 0 C0.33 0 0.66 0 1 0 C1 3.3 1 6.6 1 10 C0.67 8.68 0.34 7.36 0 6 C-0.25394531 6.63808594 -0.50789062 7.27617187 -0.76953125 7.93359375 C-1.11371094 8.75988281 -1.45789063 9.58617187 -1.8125 10.4375 C-2.14894531 11.26121094 -2.48539063 12.08492188 -2.83203125 12.93359375 C-4 15 -4 15 -7 16 C-7 11.36566865 -5.91609111 9.67107332 -3.5625 5.75 C-2.92441406 4.67234375 -2.28632813 3.5946875 -1.62890625 2.484375 C-0.82259766 1.25460937 -0.82259766 1.25460937 0 0 Z " fill="#C42C34" transform="translate(215,473)"/>
<path d="M0 0 C0.66 0.66 1.32 1.32 2 2 C0.02 5.63 -1.96 9.26 -4 13 C-4.99 13 -5.98 13 -7 13 C-7.48951049 6.63636364 -7.48951049 6.63636364 -5.125 3.5625 C-3 2 -3 2 -1 2 C-0.67 1.34 -0.34 0.68 0 0 Z " fill="#FAE2DF" transform="translate(168,550)"/>
<path d="M0 0 C1.125 3.75 1.125 3.75 0 6 C10.56 6 21.12 6 32 6 C32 6.33 32 6.66 32 7 C20.45 7 8.9 7 -3 7 C-1 1 -1 1 0 0 Z " fill="#AD484B" transform="translate(416,376)"/>
<path d="M0 0 C2.82152715 3.52468376 4.98269186 7.32679708 7.1875 11.25 C7.55552734 11.8996875 7.92355469 12.549375 8.30273438 13.21875 C9.20428903 14.81110627 10.10248417 16.4053638 11 18 C10.34 18.66 9.68 19.32 9 20 C8.731875 19.195625 8.46375 18.39125 8.1875 17.5625 C7.795625 16.716875 7.40375 15.87125 7 15 C6.01 14.67 5.02 14.34 4 14 C2.8125 11.4375 2.8125 11.4375 2 9 C1.67 9 1.34 9 1 9 C0.67 6.03 0.34 3.06 0 0 Z " fill="#C33339" transform="translate(486,358)"/>
<path d="M0 0 C1.46911544 3.81970016 0.52561108 6.30641529 -1 10 C-1.66 10.66 -2.32 11.32 -3 12 C-5.125 11.625 -5.125 11.625 -7 11 C-3.57894737 1.78947368 -3.57894737 1.78947368 0 0 Z " fill="#0E0E0E" transform="translate(358,228)"/>
<path d="M0 0 C2.99470816 1.49735408 3.51823928 3.82591319 4.9375 6.8125 C6.69722728 10.50747724 8.4173714 13.81604295 11 17 C10.67 17.66 10.34 18.32 10 19 C9.34 19 8.68 19 8 19 C7.81824219 18.36191406 7.63648438 17.72382812 7.44921875 17.06640625 C7.19785156 16.24011719 6.94648437 15.41382813 6.6875 14.5625 C6.44386719 13.73878906 6.20023438 12.91507813 5.94921875 12.06640625 C5.63597656 11.38449219 5.32273437 10.70257812 5 10 C4.01 9.67 3.02 9.34 2 9 C-0.29013653 5.5647952 -0.17842973 4.014669 0 0 Z " fill="#C0303B" transform="translate(581,523)"/>
<path d="M0 0 C2.63520741 2.40502363 4.40302943 5.0185849 6.25 8.0625 C6.79140625 8.94035156 7.3328125 9.81820313 7.890625 10.72265625 C8.25671875 11.47417969 8.6228125 12.22570312 9 13 C8.67 13.66 8.34 14.32 8 15 C7.01 14.34 6.02 13.68 5 13 C5 11.68 5 10.36 5 9 C4.34 9 3.68 9 3 9 C2.67 8.34 2.34 7.68 2 7 C1.67 7.66 1.34 8.32 1 9 C0.01 8.67 -0.98 8.34 -2 8 C-1.34 5.36 -0.68 2.72 0 0 Z " fill="#C8343B" transform="translate(477,343)"/>
<path d="M0 0 C1.13643966 3.40931897 0.86747764 4.00335456 -0.4375 7.1875 C-0.72496094 7.90292969 -1.01242187 8.61835938 -1.30859375 9.35546875 C-1.53675781 9.89816406 -1.76492188 10.44085938 -2 11 C-2.66 11 -3.32 11 -4 11 C-4.268125 12.258125 -4.53625 13.51625 -4.8125 14.8125 C-5.59888463 17.96361572 -6.1803531 20.1202354 -9 22 C-9.66 22 -10.32 22 -11 22 C-9.48968084 16.73877829 -7.09625809 12.32767414 -4.375 7.625 C-3.95476562 6.88894531 -3.53453125 6.15289062 -3.1015625 5.39453125 C-2.07247236 3.5936235 -1.03689244 1.79642682 0 0 Z " fill="#B8363C" transform="translate(442,330)"/>
<path d="M0 0 C2.64 0.66 5.28 1.32 8 2 C6.35 5.3 4.7 8.6 3 12 C2.34 11.67 1.68 11.34 1 11 C0.875 4.25 0.875 4.25 2 2 C1.34 2 0.68 2 0 2 C0 1.34 0 0.68 0 0 Z " fill="#161616" transform="translate(328,336)"/>
<path d="M0 0 C1 2 1 2 0.22265625 4.8203125 C-0.16019531 5.91085937 -0.54304687 7.00140625 -0.9375 8.125 C-1.31777344 9.22070312 -1.69804687 10.31640625 -2.08984375 11.4453125 C-2.54037109 12.70988281 -2.54037109 12.70988281 -3 14 C-3.99 14 -4.98 14 -6 14 C-6.33 15.32 -6.66 16.64 -7 18 C-7.66 18 -8.32 18 -9 18 C-7.6698701 12.19579681 -5.32886927 7.90794829 -2 3 C-1.34 2.01 -0.68 1.02 0 0 Z " fill="#C7313D" transform="translate(186,523)"/>
<path d="M0 0 C0.66 0.33 1.32 0.66 2 1 C1.52949219 1.79664063 1.05898437 2.59328125 0.57421875 3.4140625 C-0.04839844 4.47367187 -0.67101562 5.53328125 -1.3125 6.625 C-1.92738281 7.66914063 -2.54226562 8.71328125 -3.17578125 9.7890625 C-4.89431931 12.81398388 -6.47457142 15.87404482 -8 19 C-8.33 17.68 -8.66 16.36 -9 15 C-8.34 15 -7.68 15 -7 15 C-7.33 13.68 -7.66 12.36 -8 11 C-7.01 11 -6.02 11 -5 11 C-5.33 10.01 -5.66 9.02 -6 8 C-4.6875 5.3125 -4.6875 5.3125 -3 3 C-2.34 3 -1.68 3 -1 3 C-0.67 2.01 -0.34 1.02 0 0 Z " fill="#FBD1D3" transform="translate(209,480)"/>
<path d="M0 0 C0.66 0 1.32 0 2 0 C2.66 1.65 3.32 3.3 4 5 C1.94766315 7.2477975 0.99332739 8.0022242 -2 9 C-2.33 9.66 -2.66 10.32 -3 11 C-3.33 11.66 -3.66 12.32 -4 13 C-4.99 13.33 -5.98 13.66 -7 14 C-5.23570801 9.02790438 -2.6060834 4.56561939 0 0 Z " fill="#D3282A" transform="translate(194,509)"/>
<path d="M0 0 C0.598125 0.763125 1.19625 1.52625 1.8125 2.3125 C3.46959332 4.3483575 5.10297674 6.1978279 7 8 C7.33 7.34 7.66 6.68 8 6 C7.42415568 8.38564077 6.77772405 10.66682784 6 13 C6.66 13.33 7.32 13.66 8 14 C7.01 14 6.02 14 5 14 C3.96958487 12.04669132 2.9509107 10.08718472 1.9375 8.125 C1.08478516 6.48917969 1.08478516 6.48917969 0.21484375 4.8203125 C-0.18605469 3.88960937 -0.58695313 2.95890625 -1 2 C-0.67 1.34 -0.34 0.68 0 0 Z " fill="#FBDCD9" transform="translate(583,522)"/>
<path d="M0 0 C-1.25805377 4.50802601 -2.90407165 7.4912812 -6 11 C-6.66 9.35 -7.32 7.7 -8 6 C-3.38461538 0 -3.38461538 0 0 0 Z " fill="#191919" transform="translate(320,365)"/>
<path d="M0 0 C0.99 0.33 1.98 0.66 3 1 C0.36 5.62 -2.28 10.24 -5 15 C-5.33 15 -5.66 15 -6 15 C-6 13.35 -6 11.7 -6 10 C-5.34 10 -4.68 10 -4 10 C-4 8.68 -4 7.36 -4 6 C-3.34 6 -2.68 6 -2 6 C-1.34 4.02 -0.68 2.04 0 0 Z " fill="#FEDDDE" transform="translate(538,543)"/>
<path d="M0 0 C1.65 0.33 3.3 0.66 5 1 C3.55049545 4.7910119 1.84827434 8.3874638 0 12 C-0.33 12 -0.66 12 -1 12 C-1.02698189 10.37509046 -1.04638757 8.75005367 -1.0625 7.125 C-1.07410156 6.22007812 -1.08570313 5.31515625 -1.09765625 4.3828125 C-1 2 -1 2 0 0 Z " fill="#F8E6E4" transform="translate(561,498)"/>
<path d="M0 0 C-1.32 2.64 -2.64 5.28 -4 8 C-4.99 7.67 -5.98 7.34 -7 7 C-7.8125 5.125 -7.8125 5.125 -8 3 C-5.45189726 -0.82215411 -4.39145359 -1.46381786 0 0 Z " fill="#F6E7E5" transform="translate(216,472)"/>
<path d="M0 0 C2.99324263 1.0975223 3.84610901 1.67682892 5.25 4.625 C5.4975 5.40875 5.745 6.1925 6 7 C3 6 3 6 1 4 C-0.32 6.31 -1.64 8.62 -3 11 C-4.3968009 6.80959731 -2.86445675 4.87233324 -1 1 C-0.67 0.67 -0.34 0.34 0 0 Z " fill="#BF3B3D" transform="translate(455,308)"/>
<path d="M0 0 C1.5 1.375 1.5 1.375 3 3 C3 3.66 3 4.32 3 5 C3.66 5.33 4.32 5.66 5 6 C4.67 7.65 4.34 9.3 4 11 C3.34 11 2.68 11 2 11 C1.34 9.35 0.68 7.7 0 6 C-0.66 6 -1.32 6 -2 6 C-1.34 4.02 -0.68 2.04 0 0 Z " fill="#EDEDED" transform="translate(385,176)"/>
<path d="M0 0 C2 1.375 2 1.375 4 3 C4 3.66 4 4.32 4 5 C4.5775 5.2475 5.155 5.495 5.75 5.75 C8.32939979 7.18299988 10.06121592 8.78424676 12 11 C12 11.66 12 12.32 12 13 C7.33402219 10.92623208 3.83888438 8.25832657 1 4 C0.34 3.34 -0.32 2.68 -1 2 C-0.67 1.34 -0.34 0.68 0 0 Z " fill="#151515" transform="translate(500,507)"/>
<path d="M0 0 C-1.44950455 3.7910119 -3.15172566 7.3874638 -5 11 C-6.5625 9.1875 -6.5625 9.1875 -8 7 C-7.67 6.01 -7.34 5.02 -7 4 C-6.01 4 -5.02 4 -4 4 C-4 3.01 -4 2.02 -4 1 C-2 0 -2 0 0 0 Z " fill="#212121" transform="translate(394,237)"/>
<path d="M0 0 C1.64826111 2.96687001 2.44271087 5.65626525 3 9 C-0.75 10.125 -0.75 10.125 -3 9 C-3.33 9.99 -3.66 10.98 -4 12 C-4.33 11.34 -4.66 10.68 -5 10 C-4.06553465 7.96855359 -3.06775224 5.96466413 -2 4 C-1.34 4 -0.68 4 0 4 C0 2.68 0 1.36 0 0 Z " fill="#141414" transform="translate(373,342)"/>
<path d="M0 0 C1.32 1.65 2.64 3.3 4 5 C2.92598892 7.91517292 2.22189824 9.77810176 0 12 C-1 9 -1 9 -1 5 C-1.66 4.34 -2.32 3.68 -3 3 C-2.01 2.01 -1.02 1.02 0 0 Z " fill="#131313" transform="translate(443,284)"/>
<path d="M0 0 C0.66 1.32 1.32 2.64 2 4 C2.66 4 3.32 4 4 4 C5.76462683 7.08809695 6 8.23312136 6 12 C4.68 12 3.36 12 2 12 C1.855625 10.948125 1.71125 9.89625 1.5625 8.8125 C1.12473034 5.84539451 0.62195134 2.93205634 0 0 Z " fill="#C62B37" transform="translate(594,546)"/>
<path d="M0 0 C1.32 0.33 2.64 0.66 4 1 C2.66654496 4.59007126 1.1056769 7.79570907 -1 11 C-1.33 11 -1.66 11 -2 11 C-2 8.36 -2 5.72 -2 3 C-1.34 3 -0.68 3 0 3 C0 2.01 0 1.02 0 0 Z " fill="#FBDBE1" transform="translate(174,536)"/>
<path d="M0 0 C-0.26088269 3.52191627 -1.24314592 4.21275268 -4 6.625 C-4.99 7.40875 -5.98 8.1925 -7 9 C-7.33 9.66 -7.66 10.32 -8 11 C-8.99 11 -9.98 11 -11 11 C-9.75596862 7.26790586 -7.82756102 5.69291525 -5 3 C-4.443125 2.401875 -3.88625 1.80375 -3.3125 1.1875 C-2 0 -2 0 0 0 Z " fill="#101010" transform="translate(448,548)"/>
<path d="M0 0 C0.99 0.33 1.98 0.66 3 1 C1.02 4.63 -0.96 8.26 -3 12 C-3.66 11.34 -4.32 10.68 -5 10 C-3.35 6.7 -1.7 3.4 0 0 Z " fill="#121413" transform="translate(549,491)"/>
<path d="M0 0 C0.33 0.99 0.66 1.98 1 3 C1.66 3.33 2.32 3.66 3 4 C2.67 5.65 2.34 7.3 2 9 C1.34 8.34 0.68 7.68 0 7 C-2.18490007 9.67642489 -2.18490007 9.67642489 -2 12 C-3.98 12.99 -3.98 12.99 -6 14 C-4.50829734 9.0276578 -2.39542583 4.58154261 0 0 Z " fill="#DCDCDC" transform="translate(557,481)"/>
<path d="M0 0 C1.0546875 1.828125 1.0546875 1.828125 2 4 C1.125 6.75 1.125 6.75 0 9 C-0.66 9 -1.32 9 -2 9 C-3.37310707 10.29233607 -4.71034824 11.62437146 -6 13 C-4.31326082 8.50202887 -2.18326108 4.27113698 0 0 Z " fill="#E6E6E6" transform="translate(277,439)"/>
<path d="M0 0 C1.32 1.32 2.64 2.64 4 4 C3.34 5.32 2.68 6.64 2 8 C1.67 7.34 1.34 6.68 1 6 C-0.65 6.66 -2.3 7.32 -4 8 C-2.87548273 5.0280615 -1.77706209 2.66559313 0 0 Z " fill="#1C1C1C" transform="translate(425,254)"/>
<path d="M0 0 C0.66 0.66 1.32 1.32 2 2 C1.875 4.5 1.875 4.5 1 7 C-0.9375 8.0625 -0.9375 8.0625 -3 9 C-4.26804566 11.0335948 -4.26804566 11.0335948 -5 13 C-5.33 12.34 -5.66 11.68 -6 11 C-4.78515625 8.3984375 -4.78515625 8.3984375 -3.0625 5.375 C-2.21365234 3.87066406 -2.21365234 3.87066406 -1.34765625 2.3359375 C-0.90292969 1.56507813 -0.45820313 0.79421875 0 0 Z " fill="#1F1F1F" transform="translate(349,240)"/>
<path d="M0 0 C0.66 0.66 1.32 1.32 2 2 C0.35 5.3 -1.3 8.6 -3 12 C-3.66 12 -4.32 12 -5 12 C-5.33 12.66 -5.66 13.32 -6 14 C-7.125 10.25 -7.125 10.25 -6 8 C-5.01 8 -4.02 8 -3 8 C-2.67 6.35 -2.34 4.7 -2 3 C-1.34 3 -0.68 3 0 3 C0 2.01 0 1.02 0 0 Z " fill="#FBD3D3" transform="translate(426,354)"/>
<path d="M0 0 C0.66 0 1.32 0 2 0 C0.53967505 5.31027254 -1.98320986 9.46330032 -5 14 C-5.97918775 10.92443042 -6.1498998 10.31407577 -4.6875 7.25 C-4.130625 6.5075 -3.57375 5.765 -3 5 C-2.34 5 -1.68 5 -1 5 C-0.67 3.35 -0.34 1.7 0 0 Z " fill="#FBD6D3" transform="translate(440,330)"/>
<path d="M0 0 C3.23360633 1.61680316 4.63931677 4.77102114 6 8 C5.75 10.4375 5.75 10.4375 5 12 C1.98642026 9.12340116 0.04541243 7.15801695 -0.125 2.8125 C-0.08375 1.884375 -0.0425 0.95625 0 0 Z " fill="#D64E4F" transform="translate(461,315)"/>
<path d="M0 0 C0.82973374 2.38213881 1.10314333 3.65893095 0.36328125 6.10546875 C0.01652344 6.79253906 -0.33023438 7.47960937 -0.6875 8.1875 C-1.18830078 9.22970703 -1.18830078 9.22970703 -1.69921875 10.29296875 C-3.30835927 12.40466367 -4.42201159 12.63636795 -7 13 C-4.82779123 8.55634449 -2.62471619 4.1995459 0 0 Z " fill="#C13845" transform="translate(175,542)"/>
<path d="M0 0 C0.33 0.66 0.66 1.32 1 2 C1.66 2 2.32 2 3 2 C2 5 2 5 -0.0625 6.1875 C-0.701875 6.455625 -1.34125 6.72375 -2 7 C-2.99 6.34 -3.98 5.68 -5 5 C-4 2 -4 2 -1.9375 0.8125 C-1.298125 0.544375 -0.65875 0.27625 0 0 Z " fill="#F1F2F2" transform="translate(547,505)"/>
<path d="M0 0 C0.33 0.99 0.66 1.98 1 3 C-0.2065625 4.175625 -0.2065625 4.175625 -1.4375 5.375 C-3.98690417 7.71982856 -3.98690417 7.71982856 -5 10 C-6.32 10 -7.64 10 -9 10 C-9 9.34 -9 8.68 -9 8 C-8.34 8 -7.68 8 -7 8 C-7 7.34 -7 6.68 -7 6 C-5.46875 4.4921875 -5.46875 4.4921875 -3.5 2.875 C-2.8503125 2.33617187 -2.200625 1.79734375 -1.53125 1.2421875 C-0.77328125 0.62730469 -0.77328125 0.62730469 0 0 Z " fill="#F4242B" transform="translate(479,370)"/>
<path d="M0 0 C0.66 0 1.32 0 2 0 C2.33 1.32 2.66 2.64 3 4 C2.01 4 1.02 4 0 4 C-0.226875 4.639375 -0.45375 5.27875 -0.6875 5.9375 C-2 8 -2 8 -4.625 8.75 C-5.40875 8.8325 -6.1925 8.915 -7 9 C-6.02180976 7.68677212 -5.0424189 6.37443848 -4.0625 5.0625 C-3.51722656 4.33160156 -2.97195313 3.60070312 -2.41015625 2.84765625 C-1 1 -1 1 0 0 Z " fill="#121212" transform="translate(373,329)"/>
<path d="M0 0 C0.66 0 1.32 0 2 0 C1.67 0.721875 1.34 1.44375 1 2.1875 C-0.00603529 5.01697427 -0.16977402 7.02895466 0 10 C-1.32 10.33 -2.64 10.66 -4 11 C-4 5.95749572 -2.59750368 4.22094347 0 0 Z " fill="#171717" transform="translate(334,267)"/>
<path d="M0 0 C0.66 0.33 1.32 0.66 2 1 C2 1.66 2 2.32 2 3 C1.34 3 0.68 3 0 3 C-0.12375 3.78375 -0.2475 4.5675 -0.375 5.375 C-1 8 -1 8 -3 10 C-4.1875 8.3125 -4.1875 8.3125 -5 6 C-3.67172689 3.14421282 -2.85356058 1.42678029 0 0 Z " fill="#0F0F0F" transform="translate(496,517)"/>
<path d="M0 0 C0.66 0 1.32 0 2 0 C2.36666667 7.33333333 2.36666667 7.33333333 0.625 10.5 C-1 12 -1 12 -3 12 C-2.37916238 9.41317658 -1.67452392 6.87040655 -0.9375 4.3125 C0.04538708 1.41340063 0.04538708 1.41340063 0 0 Z " fill="#E51621" transform="translate(213,479)"/>
<path d="M0 0 C0.66 0 1.32 0 2 0 C0.23570801 4.97209562 -2.3939166 9.43438061 -5 14 C-5.66 13.34 -6.32 12.68 -7 12 C-6.566875 11.29875 -6.13375 10.5975 -5.6875 9.875 C-4.51254896 7.87323157 -3.41303534 5.82607067 -2.375 3.75 C-1 1 -1 1 0 0 Z " fill="#DDDDDD" transform="translate(359,220)"/>
<path d="M0 0 C0.99 0.33 1.98 0.66 3 1 C0.69 4.96 -1.62 8.92 -4 13 C-5 10 -5 10 -4.00390625 7.51953125 C-3.52824219 6.62621094 -3.05257812 5.73289062 -2.5625 4.8125 C-2.08941406 3.91144531 -1.61632812 3.01039063 -1.12890625 2.08203125 C-0.75636719 1.39496094 -0.38382813 0.70789063 0 0 Z " fill="#FCDAD4" transform="translate(188,515)"/>
<path d="M0 0 C0.99 0.66 1.98 1.32 3 2 C2.21258141 3.46063143 1.4199095 4.91843173 0.625 6.375 C0.18414062 7.18710937 -0.25671875 7.99921875 -0.7109375 8.8359375 C-2 11 -2 11 -4 13 C-3.125 5.25 -3.125 5.25 -2 3 C-1.34 3 -0.68 3 0 3 C0 2.01 0 1.02 0 0 Z " fill="#FDE5E1" transform="translate(452,307)"/>
<path d="M0 0 C2.31 0.66 4.62 1.32 7 2 C6.67 4.31 6.34 6.62 6 9 C5.401875 8.236875 4.80375 7.47375 4.1875 6.6875 C2.53040668 4.6516425 0.89702326 2.8021721 -1 1 C-0.67 0.67 -0.34 0.34 0 0 Z " fill="#F6DBD7" transform="translate(456,306)"/>
<path d="M0 0 C0.33 1.32 0.66 2.64 1 4 C0.01 4.495 0.01 4.495 -1 5 C-1.35919668 6.66128463 -1.68911632 8.32900023 -2 10 C-3.0625 12.3125 -3.0625 12.3125 -4 14 C-4.99 14 -5.98 14 -7 14 C-5.23570801 9.02790438 -2.6060834 4.56561939 0 0 Z " fill="#171717" transform="translate(417,267)"/>
<path d="M0 0 C0.82273185 2.36734455 1.10990889 3.64262754 0.36328125 6.0703125 C0.01652344 6.74835937 -0.33023438 7.42640625 -0.6875 8.125 C-1.02136719 8.80820312 -1.35523438 9.49140625 -1.69921875 10.1953125 C-3.22681238 12.31467663 -4.60786878 13.02300325 -7 14 C-5.23570801 9.02790438 -2.6060834 4.56561939 0 0 Z " fill="#C22E38" transform="translate(561,508)"/>
<path d="M0 0 C0.33 0.66 0.66 1.32 1 2 C0.360625 2.9075 -0.27875 3.815 -0.9375 4.75 C-3.06090961 7.71154882 -3.06090961 7.71154882 -3.5625 10.3125 C-3.706875 10.869375 -3.85125 11.42625 -4 12 C-4.99 12.33 -5.98 12.66 -7 13 C-5.60332244 8.11162854 -3.65571105 3.65571105 0 0 Z " fill="#EA242E" transform="translate(205,495)"/>
<path d="M0 0 C2.5625 2.125 2.5625 2.125 5 5 C4.8125 8.3125 4.8125 8.3125 4 11 C2 10 2 10 0.875 7.1875 C0 4 0 4 0 0 Z " fill="#151515" transform="translate(512,473)"/>
<path d="M0 0 C0.66 0.33 1.32 0.66 2 1 C2.36923077 6.41538462 2.36923077 6.41538462 0.5 9.375 C0.005 9.91125 -0.49 10.4475 -1 11 C-1.66 9.68 -2.32 8.36 -3 7 C-2.01 6.67 -1.02 6.34 0 6 C-0.66 4.35 -1.32 2.7 -2 1 C-1.34 0.67 -0.68 0.34 0 0 Z " fill="#F1F1F1" transform="translate(251,401)"/>
<path d="M0 0 C0.66 0.99 1.32 1.98 2 3 C0.68 5.31 -0.64 7.62 -2 10 C-2.66 9.67 -3.32 9.34 -4 9 C-3.67 6.36 -3.34 3.72 -3 1 C-2.01 0.67 -1.02 0.34 0 0 Z " fill="#EBEBEB" transform="translate(342,248)"/>
<path d="M0 0 C0.99 0 1.98 0 3 0 C3.33 1.98 3.66 3.96 4 6 C2.35 6 0.7 6 -1 6 C-0.67 4.02 -0.34 2.04 0 0 Z M-3 6 C-2.01 6.33 -1.02 6.66 0 7 C-0.99 7.33 -1.98 7.66 -3 8 C-3 7.34 -3 6.68 -3 6 Z " fill="#F5F5F5" transform="translate(324,560)"/>
<path d="M0 0 C0.33 0 0.66 0 1 0 C1 1.98 1 3.96 1 6 C0.01 6.33 -0.98 6.66 -2 7 C-2.12375 8.134375 -2.2475 9.26875 -2.375 10.4375 C-2.58125 11.613125 -2.7875 12.78875 -3 14 C-3.99 14.495 -3.99 14.495 -5 15 C-3.97137215 9.55432314 -2.75385216 4.88182883 0 0 Z " fill="#C22A32" transform="translate(537,549)"/>
<path d="M0 0 C0.66 0.66 1.32 1.32 2 2 C0.35 4.97 -1.3 7.94 -3 11 C-3.66 10.67 -4.32 10.34 -5 10 C-3.84414715 6.08788267 -2.64465038 3.1254959 0 0 Z " fill="#111111" transform="translate(541,506)"/>
<path d="M0 0 C0.33 0.66 0.66 1.32 1 2 C-1.80804268 4.96404505 -4.18315774 7.44499019 -8 9 C-6.4169423 4.7257442 -3.49431596 2.73468206 0 0 Z " fill="#111111" transform="translate(536,459)"/>
<path d="M0 0 C0.66 0.33 1.32 0.66 2 1 C1.814375 1.78375 1.62875 2.5675 1.4375 3.375 C0.74037734 5.97089775 0.74037734 5.97089775 2 8 C0.125 7.8125 0.125 7.8125 -2 7 C-3.25 4.4375 -3.25 4.4375 -4 2 C-2.125 0.9375 -2.125 0.9375 0 0 Z " fill="#EDEDED" transform="translate(525,416)"/>
<path d="M0 0 C0.99 0 1.98 0 3 0 C3 1.32 3 2.64 3 4 C3.99 4 4.98 4 6 4 C6.66 5.98 7.32 7.96 8 10 C7.01 10.495 7.01 10.495 6 11 C5.67 9.68 5.34 8.36 5 7 C4.34 7 3.68 7 3 7 C2.01 4.69 1.02 2.38 0 0 Z " fill="#F9D4D7" transform="translate(593,543)"/>
<path d="M0 0 C1.65 0 3.3 0 5 0 C5.33 2.31 5.66 4.62 6 7 C5.01 7.495 5.01 7.495 4 8 C2.68 5.36 1.36 2.72 0 0 Z " fill="#E1E1E1" transform="translate(528,431)"/>
<path d="M0 0 C1.67542976 0.28604898 3.34385343 0.61781233 5 1 C5 2.65 5 4.3 5 6 C3.35 5.67 1.7 5.34 0 5 C-0.5625 3.0625 -0.5625 3.0625 -1 1 C-0.67 0.67 -0.34 0.34 0 0 Z " fill="#FBEAEE" transform="translate(499,376)"/>
<path d="M0 0 C0.66 0 1.32 0 2 0 C0.79157144 4.43090471 -0.51668565 6.98112756 -4 10 C-4.33 9.34 -4.66 8.68 -5 8 C-4.2578125 6.30859375 -4.2578125 6.30859375 -3.125 4.4375 C-2.75632812 3.81746094 -2.38765625 3.19742187 -2.0078125 2.55859375 C-1 1 -1 1 0 0 Z " fill="#FBCFD9" transform="translate(432,344)"/>
<path d="M0 0 C0.66 0 1.32 0 2 0 C2.33 0.99 2.66 1.98 3 3 C0.6875 6.1875 0.6875 6.1875 -2 9 C-2.66 9 -3.32 9 -4 9 C-2.80100302 5.9168649 -1.52299523 2.93720508 0 0 Z " fill="#BE454C" transform="translate(566,499)"/>
<path d="M0 0 C0.33 0 0.66 0 1 0 C1 3.3 1 6.6 1 10 C0.67 8.68 0.34 7.36 0 6 C-0.66 6 -1.32 6 -2 6 C-2.33 6.99 -2.66 7.98 -3 9 C-3.66 8.67 -4.32 8.34 -5 8 C-4.19185349 6.66402348 -3.37836819 5.331275 -2.5625 4 C-2.11003906 3.2575 -1.65757812 2.515 -1.19140625 1.75 C-0.79824219 1.1725 -0.40507812 0.595 0 0 Z " fill="#A92F3E" transform="translate(215,473)"/>
<path d="M0 0 C0.99 0.33 1.98 0.66 3 1 C4.32 0.67 5.64 0.34 7 0 C5.68 2.64 4.36 5.28 3 8 C1.53867783 5.07735566 0.65900754 3.07536854 0 0 Z " fill="#F5DBDB" transform="translate(409,376)"/>
<path d="M0 0 C1 2 2 4 3 6 C2.34 6 1.68 6 1 6 C1 6.66 1 7.32 1 8 C-0.32 7.67 -1.64 7.34 -3 7 C-1.125 2.25 -1.125 2.25 0 0 Z " fill="#2C2C2C" transform="translate(300,325)"/>
<path d="M0 0 C3.57104439 1.87949705 5.54744301 3.17053157 7 7 C3.48283697 7 2.62878252 6.17554415 0 4 C-0.99 4.495 -0.99 4.495 -2 5 C-1.34 3.35 -0.68 1.7 0 0 Z " fill="#121212" transform="translate(360,222)"/>
<path d="M0 0 C0.66 0.33 1.32 0.66 2 1 C1.01 2.98 0.02 4.96 -1 7 C-1.66 7 -2.32 7 -3 7 C-3.66 7.66 -4.32 8.32 -5 9 C-5.66 9 -6.32 9 -7 9 C-7 7 -7 7 -5.125 4.875 C-3 3 -3 3 -1 3 C-0.67 2.01 -0.34 1.02 0 0 Z " fill="#1B1B1B" transform="translate(515,552)"/>
<path d="M0 0 C0.66 0 1.32 0 2 0 C0.80100302 3.0831351 -0.47700477 6.06279492 -2 9 C-2.66 9 -3.32 9 -4 9 C-4 7.02 -4 5.04 -4 3 C-3.01 2.67 -2.02 2.34 -1 2 C-0.67 1.34 -0.34 0.68 0 0 Z " fill="#EEEEEE" transform="translate(270,374)"/>
<path d="M0 0 C1.0013988 3.00419641 1.51421457 5.87709365 2 9 C0.02 9 -1.96 9 -4 9 C-3.67 8.01 -3.34 7.02 -3 6 C-2.34 6 -1.68 6 -1 6 C-1.020625 5.195625 -1.04125 4.39125 -1.0625 3.5625 C-1 1 -1 1 0 0 Z " fill="#EC232E" transform="translate(437,343)"/>
<path d="M0 0 C2.97 0.495 2.97 0.495 6 1 C5.34 2.32 4.68 3.64 4 5 C1 5 1 5 -1 4 C-0.67 2.68 -0.34 1.36 0 0 Z " fill="#0F0F0F" transform="translate(362,218)"/>
<path d="M0 0 C0.33 0.99 0.66 1.98 1 3 C0 4 0 4 -3.37890625 4.09765625 C-4.77347077 4.09098369 -6.16801743 4.07902532 -7.5625 4.0625 C-8.27341797 4.05798828 -8.98433594 4.05347656 -9.71679688 4.04882812 C-11.47790013 4.03700864 -13.23896036 4.01907263 -15 4 C-15 3.67 -15 3.34 -15 3 C-13.75283203 2.92652344 -13.75283203 2.92652344 -12.48046875 2.8515625 C-11.39378906 2.77679687 -10.30710938 2.70203125 -9.1875 2.625 C-8.10855469 2.55539062 -7.02960938 2.48578125 -5.91796875 2.4140625 C-2.81373814 2.18804267 -2.81373814 2.18804267 0 0 Z " fill="#C92730" transform="translate(215,560)"/>
<path d="M0 0 C0.66 0.99 1.32 1.98 2 3 C1.2884375 3.928125 1.2884375 3.928125 0.5625 4.875 C-1.02417441 6.90705546 -1.02417441 6.90705546 -2 9 C-2.99 9.33 -3.98 9.66 -5 10 C-3.66511872 6.40608886 -2.03977277 3.24509304 0 0 Z " fill="#D3D3D3" transform="translate(525,538)"/>
<path d="M0 0 C-1.2491742 3.45925163 -2.67527795 6.14693203 -5 9 C-5.1875 5.625 -5.1875 5.625 -5 2 C-2 0 -2 0 0 0 Z " fill="#FCDCDD" transform="translate(183,528)"/>
<path d="M0 0 C3.36179774 1.44077046 5.59156268 3.24750021 8 6 C8 6.66 8 7.32 8 8 C4.63820226 6.55922954 2.40843732 4.75249979 0 2 C0 1.34 0 0.68 0 0 Z " fill="#141414" transform="translate(512,520)"/>
<path d="M0 0 C0.66 0 1.32 0 2 0 C2 0.66 2 1.32 2 2 C2.99 2.33 3.98 2.66 5 3 C5.33 5.64 5.66 8.28 6 11 C5.34 10.34 4.68 9.68 4 9 C4 8.01 4 7.02 4 6 C3.34 6 2.68 6 2 6 C1.34 4.02 0.68 2.04 0 0 Z " fill="#FCD1CF" transform="translate(571,504)"/>
<path d="M0 0 C1.33333333 0 2.66666667 0 4 0 C4.33 1.98 4.66 3.96 5 6 C3.68 6.33 2.36 6.66 1 7 C0.67 4.69 0.34 2.38 0 0 Z " fill="#0C0C0C" transform="translate(499,450)"/>
<path d="M0 0 C0.66 0.33 1.32 0.66 2 1 C1.62403791 3.78211944 1.32681541 5.5879284 -0.4375 7.8125 C-2 9 -2 9 -4 9 C-2.94124926 5.59687262 -1.99097846 2.98646769 0 0 Z " fill="#B72632" transform="translate(435,343)"/>
<path d="M0 0 C3.36179774 1.44077046 5.59156268 3.24750021 8 6 C8 6.66 8 7.32 8 8 C4.63820226 6.55922954 2.40843732 4.75249979 0 2 C0 1.34 0 0.68 0 0 Z " fill="#161616" transform="translate(320,328)"/>
<path d="M0 0 C0.66 0 1.32 0 2 0 C2 2.64 2 5.28 2 8 C1.34 8 0.68 8 0 8 C-0.33 8.99 -0.66 9.98 -1 11 C-1.66 10.67 -2.32 10.34 -3 10 C-2.690625 9.278125 -2.38125 8.55625 -2.0625 7.8125 C-1.07439461 5.19692691 -0.4712246 2.74881018 0 0 Z " fill="#D3D3D3" transform="translate(404,216)"/>
<path d="M0 0 C1.98 0.66 3.96 1.32 6 2 C6 3.32 6 4.64 6 6 C4.125 5.8125 4.125 5.8125 2 5 C0.75 2.4375 0.75 2.4375 0 0 Z " fill="#FDE7EC" transform="translate(590,537)"/>
<path d="M0 0 C0.66 0.66 1.32 1.32 2 2 C0.3619751 5.51005335 -1.03134491 8.45543849 -4 11 C-4.1875 8.625 -4.1875 8.625 -4 6 C-3.01 5.34 -2.02 4.68 -1 4 C-0.27617533 1.94074861 -0.27617533 1.94074861 0 0 Z " fill="#F9C6C7" transform="translate(550,523)"/>
<path d="M0 0 C1.5625 1.75 1.5625 1.75 3 4 C2.6875 6.25 2.6875 6.25 2 8 C0.5 6.625 0.5 6.625 -1 5 C-1 4.34 -1 3.68 -1 3 C-1.66 2.67 -2.32 2.34 -3 2 C-2.01 2 -1.02 2 0 2 C0 1.34 0 0.68 0 0 Z " fill="#F5DDD8" transform="translate(569,496)"/>
<path d="M0 0 C0.99 0 1.98 0 3 0 C3.99 2.31 4.98 4.62 6 7 C5.01 7 4.02 7 3 7 C0 2.77777778 0 2.77777778 0 0 Z " fill="#E1E1E1" transform="translate(546,461)"/>
<path d="M0 0 C1.32 0 2.64 0 4 0 C4.66 1.65 5.32 3.3 6 5 C5.01 5.33 4.02 5.66 3 6 C0 2.25 0 2.25 0 0 Z " fill="#121212" transform="translate(401,330)"/>
<path d="M0 0 C1 2 1 2 0.44140625 3.9453125 C0.15136719 4.66460938 -0.13867188 5.38390625 -0.4375 6.125 C-0.72496094 6.84945312 -1.01242188 7.57390625 -1.30859375 8.3203125 C-1.53675781 8.87460937 -1.76492187 9.42890625 -2 10 C-2.99 9.67 -3.98 9.34 -5 9 C-3.35 6.03 -1.7 3.06 0 0 Z " fill="#B83C43" transform="translate(186,523)"/>
<path d="M0 0 C-1.32 1.65 -2.64 3.3 -4 5 C-4.99 4.34 -5.98 3.68 -7 3 C-7 2.01 -7 1.02 -7 0 C-2.25 -1.125 -2.25 -1.125 0 0 Z " fill="#F7DBD9" transform="translate(560,512)"/>
<path d="M0 0 C1.32 0.33 2.64 0.66 4 1 C4 1.66 4 2.32 4 3 C4.66 3 5.32 3 6 3 C5.67 4.65 5.34 6.3 5 8 C2.74754119 5.31158141 1.11786042 3.35358125 0 0 Z " fill="#E4E4E4" transform="translate(552,472)"/>
<path d="M0 0 C0 3 0 3 -1 6 C-1.66 6.66 -2.32 7.32 -3 8 C-3.66 7.34 -4.32 6.68 -5 6 C-2.25 1.125 -2.25 1.125 0 0 Z " fill="#E1E1E2" transform="translate(406,363)"/>
<path d="M0 0 C0.2475 0.5775 0.495 1.155 0.75 1.75 C2.16683317 4.3002997 3.87627537 6.01785701 6 8 C5.67 8.99 5.34 9.98 5 11 C2.25722422 7.80009492 0.3697164 4.99500618 -1 1 C-0.67 0.67 -0.34 0.34 0 0 Z " fill="#FDE3E4" transform="translate(463,314)"/>
<path d="M0 0 C2.0625 2.3125 2.0625 2.3125 4 5 C3.67 5.99 3.34 6.98 3 8 C1.68 7.34 0.36 6.68 -1 6 C-0.67 4.02 -0.34 2.04 0 0 Z " fill="#212121" transform="translate(394,199)"/>
<path d="M0 0 C1.32 0.33 2.64 0.66 4 1 C4.33 2.65 4.66 4.3 5 6 C4.01 6 3.02 6 2 6 C1.34 4.02 0.68 2.04 0 0 Z " fill="#FCD7D2" transform="translate(600,554)"/>
<path d="M0 0 C0.99 0 1.98 0 3 0 C1.8141763 3.37503669 0.72426311 5.64722731 -2 8 C-1.125 1.125 -1.125 1.125 0 0 Z " fill="#FCD9D5" transform="translate(197,499)"/>
<path d="M0 0 C0.99 0.99 1.98 1.98 3 3 C2.34 4.32 1.68 5.64 1 7 C1 6.34 1 5.68 1 5 C-0.98 5.99 -0.98 5.99 -3 7 C-1.125 2.25 -1.125 2.25 0 0 Z " fill="#E0E0E1" transform="translate(549,496)"/>
<path d="M0 0 C0.66 0.33 1.32 0.66 2 1 C0.02 3.97 0.02 3.97 -2 7 C-2.99 6.67 -3.98 6.34 -5 6 C-4.34 5.01 -3.68 4.02 -3 3 C-2.34 3 -1.68 3 -1 3 C-0.67 2.01 -0.34 1.02 0 0 Z " fill="#FDE5E8" transform="translate(209,480)"/>
<path d="M0 0 C0.33 0 0.66 0 1 0 C1 2.31 1 4.62 1 7 C-0.32 7.33 -1.64 7.66 -3 8 C-1.125 2.25 -1.125 2.25 0 0 Z " fill="#C23640" transform="translate(421,366)"/>
<path d="M0 0 C1.32 0.33 2.64 0.66 4 1 C3.01 1 2.02 1 1 1 C1.309375 1.928125 1.309375 1.928125 1.625 2.875 C1.74875 3.57625 1.8725 4.2775 2 5 C0 7 0 7 -3 8 C-2.690625 7.236875 -2.38125 6.47375 -2.0625 5.6875 C-1.32106407 3.81210323 -0.63771783 1.91315348 0 0 Z " fill="#DFDFDF" transform="translate(338,333)"/>
<path d="M0 0 C0.66 0.33 1.32 0.66 2 1 C-0.475 5.455 -0.475 5.455 -3 10 C-4.2077558 6.37673261 -3.54311128 5.35853631 -2 2 C-1.34 2 -0.68 2 0 2 C0 1.34 0 0.68 0 0 Z " fill="#FCDADB" transform="translate(446,320)"/>
<path d="M0 0 C2.50037734 2.17424117 3.43628586 3.73045798 4 7 C3.01 7 2.02 7 1 7 C-0.0625 4.625 -0.0625 4.625 -1 2 C-0.67 1.34 -0.34 0.68 0 0 Z " fill="#EFEFEF" transform="translate(428,253)"/>
<path d="M0 0 C1.5625 1.8125 1.5625 1.8125 3 4 C2.67 4.99 2.34 5.98 2 7 C1.01 7 0.02 7 -1 7 C-2 4 -2 4 -1.0625 1.8125 C-0.5365625 0.9153125 -0.5365625 0.9153125 0 0 Z " fill="#D92D3A" transform="translate(540,544)"/>
<path d="M0 0 C0.66 0.33 1.32 0.66 2 1 C0.8141763 4.37503669 -0.27573689 6.64722731 -3 9 C-3 5.30581799 -1.71820705 3.22163822 0 0 Z " fill="#BB3034" transform="translate(191,514)"/>
<path d="M0 0 C0.66 0.33 1.32 0.66 2 1 C2.59355614 3.64860427 2.74209269 6.29197322 3 9 C2.34 9 1.68 9 1 9 C1 8.34 1 7.68 1 7 C0.34 6.67 -0.32 6.34 -1 6 C-0.67 4.02 -0.34 2.04 0 0 Z " fill="#F4F9F4" transform="translate(572,497)"/>
<path d="M0 0 C0.66 1.32 1.32 2.64 2 4 C1.01 5.485 1.01 5.485 0 7 C-0.66 7 -1.32 7 -2 7 C-2 5.02 -2 3.04 -2 1 C-1.34 0.67 -0.68 0.34 0 0 Z " fill="#171717" transform="translate(540,452)"/>
<path d="M0 0 C1.32 0.33 2.64 0.66 4 1 C4.33 3.31 4.66 5.62 5 8 C2.74754119 5.31158141 1.11786042 3.35358125 0 0 Z " fill="#FBD7D4" transform="translate(491,366)"/>
<path d="M0 0 C2.61527381 2.36620011 4.26440562 4.942048 6 8 C4.125 7.6875 4.125 7.6875 2 7 C0 4 0 4 0 0 Z " fill="#C63331" transform="translate(467,327)"/>
<path d="M0 0 C4.8 2.46153846 4.8 2.46153846 5.8125 5.1875 C5.874375 5.785625 5.93625 6.38375 6 7 C5.01 7 4.02 7 3 7 C0 2.77777778 0 2.77777778 0 0 Z " fill="#F8BABB" transform="translate(467,325)"/>
<path d="M0 0 C0.33 0.66 0.66 1.32 1 2 C1.66 2 2.32 2 3 2 C3.625 3.875 3.625 3.875 4 6 C3.34 6.66 2.68 7.32 2 8 C0.4375 5.6875 0.4375 5.6875 -1 3 C-0.67 2.01 -0.34 1.02 0 0 Z " fill="#E7E7E7" transform="translate(393,193)"/>
<path d="M0 0 C0.66 1.32 1.32 2.64 2 4 C1.34 4 0.68 4 0 4 C-0.28875 4.639375 -0.5775 5.27875 -0.875 5.9375 C-2 8 -2 8 -4 9 C-2.80100302 5.9168649 -1.52299523 2.93720508 0 0 Z " fill="#D2D2D2" transform="translate(516,553)"/>
<path d="M0 0 C-1.1858237 3.37503669 -2.27573689 5.64722731 -5 8 C-5.36625971 3.48279689 -5.36625971 3.48279689 -3.625 1.1875 C-2 0 -2 0 0 0 Z " fill="#FCD1CC" transform="translate(537,550)"/>
<path d="M0 0 C0.66 0 1.32 0 2 0 C0.8141763 3.37503669 -0.27573689 5.64722731 -3 8 C-3.33 6.68 -3.66 5.36 -4 4 C-3.01 4 -2.02 4 -1 4 C-0.67 2.68 -0.34 1.36 0 0 Z " fill="#FCD2D2" transform="translate(544,534)"/>
<path d="M0 0 C0.66 0 1.32 0 2 0 C2 0.66 2 1.32 2 2 C2.99 2 3.98 2 5 2 C5.625 3.875 5.625 3.875 6 6 C5.34 6.66 4.68 7.32 4 8 C2.68 5.36 1.36 2.72 0 0 Z " fill="#FCDCD7" transform="translate(577,515)"/>
<path d="M0 0 C0.66 0.33 1.32 0.66 2 1 C2.625 3.5625 2.625 3.5625 3 6 C3.66 6 4.32 6 5 6 C4.67 6.66 4.34 7.32 4 8 C3.34 8 2.68 8 2 8 C0.3125 5.6875 0.3125 5.6875 -1 3 C-0.67 2.01 -0.34 1.02 0 0 Z " fill="#CC474C" transform="translate(570,504)"/>
<path d="M0 0 C1.98 0.495 1.98 0.495 4 1 C3.67 2.32 3.34 3.64 3 5 C2.01 5 1.02 5 0 5 C-0.33 4.01 -0.66 3.02 -1 2 C-0.67 1.34 -0.34 0.68 0 0 Z " fill="#F0F0F0" transform="translate(545,456)"/>
<path d="M0 0 C1.32 0.33 2.64 0.66 4 1 C3.01 2.32 2.02 3.64 1 5 C0.01 4.67 -0.98 4.34 -2 4 C-1.34 2.68 -0.68 1.36 0 0 Z " fill="#EDEDED" transform="translate(237,428)"/>
<path d="M0 0 C0.33 0 0.66 0 1 0 C1.25 2.25 1.25 2.25 1 5 C-1 7.3125 -1 7.3125 -3 9 C-3 5.30581799 -1.71820705 3.22163822 0 0 Z " fill="#BD3541" transform="translate(428,354)"/>
<path d="M0 0 C1.485 0.99 1.485 0.99 3 2 C2.67 3.65 2.34 5.3 2 7 C1.34 7 0.68 7 0 7 C-1.125 2.25 -1.125 2.25 0 0 Z " fill="#F1151A" transform="translate(438,343)"/>
<path d="M0 0 C0.66 0 1.32 0 2 0 C1.25 4.75 1.25 4.75 -1 7 C-1.625 5.1875 -1.625 5.1875 -2 3 C-1.34 2.01 -0.68 1.02 0 0 Z " fill="#F2F2F2" transform="translate(291,336)"/>
<path d="M0 0 C2.34058637 2.12780579 3.70700306 4.11562221 5 7 C4.01 7 3.02 7 2 7 C2 6.34 2 5.68 2 5 C1.34 5 0.68 5 0 5 C0 3.35 0 1.7 0 0 Z " fill="#E3E3E3" transform="translate(331,280)"/>
<path d="M0 0 C0.99 0.33 1.98 0.66 3 1 C3 1.99 3 2.98 3 4 C1.02 4.99 1.02 4.99 -1 6 C-1 2 -1 2 0 0 Z " fill="#171717" transform="translate(409,281)"/>
</svg>
